
<svg xmlns="http://www.w3.org/2000/svg" viewBox="0 0 40 40" width="40" height="40">
  <path fill="#24292f" d="M10 12.5a2.5 2.5 0 0 1 2.5-2.5h15a.75.75 0 0 1 .75.75v18.5a.75.75 0 0 1-.75.75h-2.5a.75.75 0 0 1 0-1.5h1.75v-13h-11.25a1 1 0 0 0-1 1v10.7a2.5 2.5 0 0 1-2.5 2.5A2.5 2.5 0 0 1 10 23.5Zm12.5-1h-10a1 1 0 0 0-1 1v10.7a1 1 0 0 0 1 1h10ZM13 28.25a.25.25 0 0 1 .25-.25h3.5a.25.25 0 0 1 .25.25v3.25a.25.25 0 0 1-.4.2l-1.45-1.08a.25.25 0 0 0-.3 0L13.4 31.7a.25.25 0 0 1-.4-.2Z"/>
  
  <g fill="#2ea44f">
    <rect x="18.5" y="6" width="3" height="10" rx="1" />
    <path d="M20 9c0-4.5-4-8-8-8 0 4.5 4 8 8 8Z" />
    <path d="M20 9c0-4.5 4-8 8-8 0 4.5-4 8-8 8Z" />
  </g>
  
  <path stroke="white" stroke-width="0.8" fill="none" d="M18.5 11h-1v4h1M21.5 11v4" />
</svg>
