<svg xmlns="http://www.w3.org/2000/svg" viewBox="0 0 80 80" width="80" height="80">
  <path fill="#21759b" d="M22 28c-1.1 0-2 .9-2 2v30c0 1.1.9 2 2 2h36V28H22z"/>
  <path fill="#1a5a78" d="M20 30v30c0 1.1.9 2 2 2h3V28h-3c-1.1 0-2 .9-2 2z"/>
  
  <g transform="translate(32, 12)">
    <path fill="white" d="M-3 4h22v26l-11-7-11 7z" />
    
    <path fill="#2ea44f" d="M0 6h16v20l-8-5-8 5z" />

    <g fill="white" transform="translate(2, 9) scale(0.75)">
      <path d="M0 4.75C0 3.784.784 3 1.75 3h12.5c.966 0 1.75.784 1.75 1.75v6.5A1.75 1.75 0 0 1 14.25 13H1.75A1.75 1.75 0 0 1 0 11.25Zm1.75-.25a.25.25 0 0 0-.25.25v6.5c0 .138.112.25.25.25h12.5a.25.25 0 0 0 .25-.25v-6.5a.25.25 0 0 0-.25-.25Z"/>
      <path d="M3.5 7.5a.75.75 0 0 1 .75-.75h1.5a.75.75 0 0 1 0 1.5h-1.5a.75.75 0 0 1-.75-.75Zm4.25-2a.75.75 0 0 1 .75.75v3.5a.75.75 0 0 1-1.5 0v-3.5a.75.75 0 0 1 .75-.75Z"/>
    </g>

    <g transform="translate(8, 2)">
      <path fill="white" d="M0 0c0-12-10-15-18-15 0 12 10 15 18 15zM0 0c0-12 10-15 18-15 0 12-10 15-18 15z" />
      <path fill="#2ea44f" d="M-1 -1.5c0-10-8-12-15-12 0 10 8 12 15 12z" />
      <path fill="#2ea44f" d="M1 -1.5c0-10 8-12 15-12 0 10-8 12-15 12z" />
    </g>
  </g>
</svg>
