<svg xmlns="http://www.w3.org/2000/svg" viewBox="0 0 64 64" width="64" height="64">
  <path fill="#24292f" d="M16 14c-1.1 0-2 .9-2 2v28c0 1.1.9 2 2 2h28V14H16z"/>
  <path fill="#000" fill-opacity="0.2" d="M14 16v28c0 1.1.9 2 2 2h2V14h-2c-1.1 0-2 .9-2 2z"/>
  
  <g transform="translate(26, 10)">
    <path fill="#2ea44f" stroke="#fff" stroke-width="2" d="M0 4h8v14l-4-2.5L0 18V4z" />
    
    <g transform="translate(4, 2)">
      <path fill="#2ea44f" stroke="#fff" stroke-width="1.5" d="M0 0c0-6-5-9-10-9 0 6 5 9 10 9z" />
      <path fill="#2ea44f" stroke="#fff" stroke-width="1.5" d="M0 0c0-6 5-9 10-9 0 6-5 9-10 9z" />
      
      <path d="M-1.5 6h-0.8v4h0.8M1.5 6v4" stroke="white" stroke-width="0.8" fill="none" transform="translate(0,4)"/>
    </g>
  </g>
</svg>
